# xmcd CD database file
#
# Track frame offsets:
#	150
#	21712
#	43740
#	65362
#	86160
#	101522
#	121005
#	135467
#	156747
#	177372
#
# Disc length: 2556 seconds
#
# Revision: 0
# Processed by: cddbd v1.5.1PL0 Copyright (c) Steve Scherf et al.
# Submitted via: CDex 1.51
#
DISCID=8b09fa0a
DTITLE=Kimiko Ito - Here I Am
DYEAR=1992
DGENRE=Jazz
TTITLE0=Love Me Where I Live
TTITLE1=And Here You Are
TTITLE2=Love For Sale
TTITLE3=Sweet Forever
TTITLE4=The Moment
TTITLE5=All Of Me
TTITLE6=Smile
TTITLE7=Quiet Moon
TTITLE8=Time To Let Love Go
TTITLE9=How Do You Keep The Music Playing?
EXTD=YEAR: 1992
EXTT0=
EXTT1=
EXTT2=
EXTT3=
EXTT4=
EXTT5=
EXTT6=
EXTT7=
EXTT8=
EXTT9=
PLAYORDER=
